# xmcd CD database file
#
# Track frame offsets:
#	150
#	15292
#	31212
#	56642
#	73180
#	96290
#	113920
#	129252
#	144510
#	156712
#	173517
#	185825
#	210460
#	226430
#	242645
#	267560
#	284722
#
# Disc length: 3941 seconds
#
# Revision: 0
# Processed by: cddbd v1.5.2PL0 Copyright (c) Steve Scherf et al.
# Submitted via: CDex 1.51
#
DISCID=fc0f6311
DTITLE=Arne Domnérus - Jump for Joy
DYEAR=1961
DGENRE=Jazz
TTITLE0=Studio A
TTITLE1=Blues for F.F.I.B.
TTITLE2=The Lament
TTITLE3=Rund Funk
TTITLE4=Boogie Stop Shuffle
TTITLE5=Young Married Man
TTITLE6=Thursday's Child
TTITLE7=Melancholy Lullaby
TTITLE8=Lester Left Town
TTITLE9=Mox Nix
TTITLE10=In The Fall
TTITLE11=Friday The 13th
TTITLE12=I'm Glad There Is You
TTITLE13=Haul Away Joe
TTITLE14=Jump For Joy
TTITLE15=Suburban Street
TTITLE16=Do Me A Favour
EXTD=YEAR: 1961
EXTT0=
EXTT1=
EXTT2=
EXTT3=
EXTT4=
EXTT5=
EXTT6=
EXTT7=
EXTT8=
EXTT9=
EXTT10=
EXTT11=
EXTT12=
EXTT13=
EXTT14=
EXTT15=
EXTT16=
PLAYORDER=
